<svg class="img-fluid" id="outputsvg" xmlns="http://www.w3.org/2000/svg" style="transform: matrix(4.82681, 0, 0, 4.82681, 99, 129); transform-origin: 50% 50%; cursor: move; max-height: none; transition: none 0s ease 0s;" width="160" height="40" viewBox="0 0 1600 400"><g id="l1QZaBwbgFYZ0TnANy8rflv" fill="rgb(14,29,46)" style="transform: none;"><g><path id="p3eXkT11N" d="M495 215 c-14 -13 -25 -33 -25 -45 0 -24 42 -70 64 -70 74 0 106 99 41 128 -38 17 -53 15 -80 -13z m77 -12 c24 -21 23 -45 -2 -68 -30 -27 -70 -7 -70 34 0 45 39 64 72 34z"></path><path id="pKQGKhxqp" d="M680 170 l0 -70 39 0 c42 0 71 20 71 49 0 24 -31 51 -58 51 -15 0 -22 6 -22 20 0 11 -7 20 -15 20 -12 0 -15 -14 -15 -70z m80 -5 c16 -19 -3 -45 -31 -45 -14 0 -19 7 -19 30 0 23 5 30 19 30 10 0 24 -7 31 -15z"></path><path id="p1DXhYmN7f" d="M880 180 c0 -53 -2 -60 -20 -60 -11 0 -20 -4 -20 -10 0 -5 25 -10 55 -10 30 0 55 5 55 10 0 6 -9 10 -20 10 -18 0 -20 7 -20 60 0 47 -3 60 -15 60 -12 0 -15 -13 -15 -60z"></path><path id="p9BvK7mNX" d="M1010 170 l0 -70 50 0 c28 0 50 5 50 10 0 6 -18 10 -40 10 -33 0 -40 3 -40 20 0 16 7 20 35 20 19 0 35 5 35 10 0 6 -16 10 -35 10 -28 0 -35 4 -35 20 0 17 7 20 40 20 22 0 40 5 40 10 0 6 -22 10 -50 10 l-50 0 0 -70z"></path><path id="pQwXl4txG" d="M1180 170 c0 -56 3 -70 15 -70 12 0 15 13 15 55 0 54 0 55 30 55 20 0 30 5 30 15 0 11 -12 15 -45 15 l-45 0 0 -70z"></path><path id="p1Dnsz7SFY" d="M1330 170 c0 -56 3 -70 15 -70 12 0 15 13 15 55 0 54 0 55 30 55 20 0 30 5 30 15 0 11 -12 15 -45 15 l-45 0 0 -70z"></path><path id="p12mC3rcu9" d="M1476 219 c-35 -28 -35 -70 0 -98 15 -12 34 -21 44 -21 31 0 70 39 70 70 0 31 -39 70 -70 70 -10 0 -29 -9 -44 -21z m80 -24 c15 -23 15 -27 0 -50 -9 -14 -23 -25 -31 -25 -17 0 -55 35 -55 50 0 15 38 50 55 50 8 0 22 -11 31 -25z"></path></g></g><g id="l79PYDBlUXVSaLQwSuLXkzD" fill="rgb(2,232,180)" style="transform: none;"><g><path id="p15pNRCZFE" d="M165 393 c-11 -3 -31 -10 -44 -15 l-24 -9 23 -24 c19 -20 30 -24 55 -19 71 13 145 -51 145 -126 0 -77 -74 -139 -148 -125 -70 13 -118 96 -94 164 9 25 7 32 -12 50 -28 26 -40 16 -54 -47 -36 -156 127 -287 269 -216 55 28 109 113 109 174 0 61 -54 146 -109 174 -32 16 -89 25 -116 19z"></path></g></g></svg>